Patient4_TMGait_0pt7_01_right_25_EMG.mot
version=1
nRows=36
nColumns=33
inDegrees=no
endheader
time	1LAddLong	2LGlutMax	3LGlutMed	4LIliopsoas	5LSemiMemb	6LBicFemLong	7LRecFem	8LVastMed	9LVastLat	10LGasMed	11LTibAnt	12lTibPost	13LPeroneusLong	14LSol	15LExtDigLong	16LFlexDigLong	17RAddLong	18RGlutMax	19RGlutMed	20RIliopsoas	21RSemiMemb	22RBicFemLong	23RRecFem	24RVastMed	25RVastLat	26RGasMed	27RTibAnt	28RTibPost	29RPeroneusLong	30RSol	31RExtDigLong	32RFlexDigLong
28.22	0.014191	-0.13046	-0.033875	-0.000916	0.020599	-0.060577	0.012054	0.006866	-0.049133	0.52063	0.033569	0.096436	0.16693	-0.049591	0.072937	0.004425	0.1973	-0.06424	0.13901	0.005035	-0.041351	0.036774	0.053406	-0.32074	-0.014191	-0.028381	-0.45075	-0.003204	0.19669	0.031586	0.000305	-0.003357
28.221	0.015106	-0.14114	0.000305	0.001373	0.014954	-0.057068	0.043945	0.008087	0.013885	-0.1152	-0.001526	-0.12009	0.4306	-0.030975	0.047913	0.034943	0.069275	-0.081024	0.17441	0.15305	-0.054626	0.056763	0.11704	-0.26169	-0.000305	-0.033264	-0.15457	0.000458	0.020599	0.031586	0.002594	-0.010681
28.222	0.011139	-0.08255	-0.030975	-0.001678	0.005798	-0.04837	0.12894	-0.001831	0.15778	-0.40985	-0.00061	0.33646	0.45868	0.26916	-0.009766	-0.034637	-0.033112	-0.032959	0.26703	0.25559	-0.045319	0.071411	0.14786	-0.17792	0.012207	-0.028381	0.15839	-0.002594	-0.081635	0.00351	0.002441	-0.004578
28.223	0.006561	-0.047913	-0.070648	-0.007935	0.011749	-0.024109	0.27588	0.007324	0.2478	-0.54962	-0.032806	0.25055	0.47852	0.059967	-0.086365	-0.092773	-0.1004	-0.070801	0.23315	0.14114	-0.0354	0.078888	0.069122	-0.07843	0.007477	-0.026245	0.35339	0	-0.11826	-0.007477	-0.000305	-0.009308
28.224	0.010834	-0.036163	-0.11124	-0.004883	0.004883	0.065002	0.22949	0.012207	-0.005188	-0.38345	0.002899	0.15762	0.42114	-0.89737	-0.17258	-0.067444	-0.16586	-0.027008	0.31891	0.051422	-0.018616	0.11261	0.17517	-0.027771	0.024719	-0.013428	0.31235	-0.001831	-0.13519	-0.015259	-0.001831	-0.010223
28.225	0.006866	-0.00351	-0.10483	0.001678	0.007019	0.10696	0.052948	0.018921	-0.000458	-0.33905	0.012665	-0.013885	-0.15945	-1.1908	-0.13123	0.38589	-0.18799	-0.061493	0.24216	-0.051117	0.014954	0.11505	0.24918	0.046997	0.016022	-0.015259	0.29098	-0.002136	-0.15411	-0.040741	-0.00061	-0.015411
28.226	0.015411	0.023651	-0.18616	0.006866	0.011597	0.096893	0.010071	0.028992	0.000458	-0.42725	0.00824	-0.13565	-0.10315	-0.94116	-0.04364	-0.15991	-0.16037	-0.046844	0.1178	-0.23575	0.022736	0.12283	0.19501	0.064697	0.028839	-0.014648	0.011902	0	-0.081635	-0.063782	-0.004272	-0.000305
28.227	0.005798	0.003815	-0.11078	0.006409	0.011292	0.065002	0.025635	0.012054	-0.072632	-0.37979	0.01709	-0.050659	0.060577	-0.41199	-0.039368	0.13458	-0.14954	-0.063934	0.12833	-0.22369	0.026245	0.10239	0.068512	0.027771	0.032654	-0.005188	-0.31784	-0.00412	0.021057	-0.04303	0.002594	-0.00412
28.228	0.010223	0.007629	-0.024109	0.021057	0.012817	0.063171	0.025177	0.008392	-0.084534	-0.28305	0.027313	-0.041962	0.081177	0.24109	0.011139	0.10742	-0.11139	-0.027161	0.26535	-0.22217	-0.002289	0.10559	-0.067596	-0.085907	0.023956	-0.008392	-0.61951	-0.003204	0.093536	-0.030518	-0.000305	-0.000763
28.229	0.007172	-0.036774	0.14114	0.016479	0.012512	0.056915	-0.053864	-0.002747	0.062256	-0.15823	0.022736	-0.034637	-0.12482	0.35416	0.036163	-0.019073	-0.093536	-0.042114	0.39566	-0.17075	-0.002136	0.11093	-0.12573	-0.12146	0.025635	-0.003204	-0.19699	-0.002747	0.12344	-0.018005	-0.002136	0.003204
28.23	0.009308	-0.0737	0.14801	0.007629	0.00412	0.070953	0.011749	-0.031586	0.20065	-0.14603	0.009308	-0.022888	-0.32593	0.40466	0.031281	-0.003815	-0.063782	-0.031891	0.18295	-0.090942	0.005341	0.11505	-0.1738	-0.13336	0.03067	-0.001373	0.16373	-0.002136	0.049133	0.000763	-0.006104	0.008392
28.231	0.004272	-0.096283	0.048523	0.005341	0.007324	0.027161	0.11841	-0.034027	0.19623	-0.072632	0.01236	-0.023193	-0.34836	0.42038	-0.001678	-0.022583	-0.032806	-0.051422	0.046234	-0.001831	-0.001831	0.094299	-0.18219	-0.20447	0.014801	0.007935	0.2832	-0.001984	0.0177	0.012665	0.001831	0.013123
28.232	-0.003052	-0.10635	-0.036316	0.001526	0.003357	0.012665	0.13092	-0.014496	0.10086	-0.074005	0.009308	-0.027618	-0.22308	0.37949	-0.016327	-0.023346	-0.0177	0.003815	-0.00473	0.011139	-0.014038	0.071564	-0.12482	-0.16419	0.035706	0.009155	-0.038757	-0.001831	0.033722	-0.0177	-0.000458	0.014954
28.233	-0.005646	-0.094757	-0.043793	0.002136	-0.003967	0.006866	0.14786	-0.007019	-0.021515	-0.063782	0.007477	-0.037231	-0.18753	0.2359	-0.010223	-0.006409	-0.01709	0.015717	0.16922	0	-0.001373	0.10468	-0.11322	-0.10437	0.05188	0.009003	-0.70465	-0.001678	0.066528	-0.080261	-0.001068	0.033417
28.234	-0.011139	-0.11185	0.010834	0.00885	-0.0177	0.0383	0.14877	0.00885	-0.053711	-0.071716	0.004272	-0.024872	-0.13718	0.069427	0.011292	0.047455	-0.020752	0.023956	0.45883	-0.006561	0.002136	0.0737	0.017242	-0.061188	0.038605	0.009613	-0.20477	-0.003204	-0.029907	-0.069122	0.001068	0.046997
28.235	-0.005798	-0.081177	0.061798	0.006866	-0.028992	0.076141	0.11871	-0.006256	-0.046692	-0.065155	0.002136	-0.009003	-0.086365	0.02182	0.000763	-0.12848	-0.025177	0.015564	0.9819	0.072784	-0.001373	0.075836	0.11047	-0.041504	0.041962	0.008087	-0.041504	-0.00412	-0.032196	-0.058594	-0.004578	-0.068665
28.236	-0.002899	-0.097351	-0.013428	0.007935	0.008545	0.070038	0.080261	0.000458	0.020905	-0.044403	0.000305	-0.011444	-0.15243	0.12497	0.000916	0.080719	0.025177	-0.005493	0.39978	0.13596	-0.016174	0.021057	0.11627	-0.056763	0.03067	-0.00061	-0.1471	-0.006409	-0.005493	-0.069733	-0.002289	-0.085449
28.237	0.016937	-0.10361	0.004425	-0.015717	0.028687	0.077667	0.090332	-0.009308	0.059967	-0.023346	0.014191	-0.014648	-0.11398	0.19898	0.039215	0.045776	0.03891	-0.014038	0.25162	0.10651	-0.046387	-0.014191	0.15808	-0.13397	0.010986	0.011902	-0.001221	-0.006256	-0.12894	-0.074615	-0.002289	-0.072479
28.238	-0.009003	-0.059052	0.020142	-0.001526	-0.011292	0.055389	0.12222	-0.001526	0.1004	-0.004425	0.020599	-0.009308	0.14206	0.18341	0.027771	-0.00824	-0.000153	-0.005188	0.003967	0.1059	-0.049438	-0.046997	0.20538	-0.086517	-0.013428	0.020447	0.059509	-0.005341	-0.11627	-0.05127	-0.003357	-0.091553
28.239	-0.007477	-0.045013	-0.00946	0.005646	-0.0354	0.064392	0.1683	-0.003815	0.088959	-0.00946	0.002289	-0.002289	0.13016	0.18387	0.025024	-0.27344	-0.045929	0.005035	0.099182	0.12024	-0.063019	-0.060425	0.090179	-0.11322	-0.020142	0.025787	0.060577	-0.003204	0.069275	-0.084076	-0.003052	-0.083923
28.24	-0.00824	-0.02533	-0.044556	0.013733	-0.000916	0.06012	0.18845	0.00824	0.018921	-0.014648	0.020294	0.000305	0.071716	0.15121	0.027313	0.065765	-0.044098	-0.037689	-0.14832	0.1001	-0.061035	-0.0737	0.052948	-0.093231	-0.023499	0.006714	-0.013123	-0.006409	0.29266	-0.002747	-0.00351	-0.070343
28.241	0.009766	-0.008698	-0.015564	0.010376	0.033264	0.02533	0.11765	0.003204	-0.035858	0.014648	0.012665	-0.002594	0.07843	0.10895	0.005188	-0.088196	-0.024109	-0.054626	-0.20645	0.10361	-0.063477	-0.066681	0.001984	-0.19089	-0.035248	-0.000763	0.015106	-0.010071	0.41245	0.10101	-0.001678	-0.061188
28.242	0.001221	0.041962	-0.044403	0.002441	0.053406	-0.16556	0.007629	0.013275	0.019226	0.034637	0.01709	0.002289	0.056152	0.072174	-0.014038	0.26077	0.026398	0.027008	-0.070038	0.099945	-0.041809	-0.061951	-0.020599	-0.18021	-0.020447	-0.013885	0.047913	-0.006866	-0.021973	0.14587	-0.001831	-0.037079
28.243	0.014648	0.054016	-0.023041	-0.003204	0.014038	-0.048065	-0.008392	0.00061	0.066681	0.026398	0.004272	0.003815	0.038452	0.089874	-0.007935	-0.083771	0.088959	-0.019684	-0.052643	0.085907	-0.019531	-0.036926	0.016022	-0.23758	-0.03006	-0.010223	0.070343	-0.004425	-0.38284	0.14923	-0.002899	-0.044403
28.244	0.010071	0.059814	-0.017548	-0.010834	-0.00351	0.096741	0.053253	0.001068	-0.11444	0.052338	-0.041046	0.005951	0.005493	0.13794	-0.013428	0.14191	0.090485	-0.045929	-0.027466	0.035858	-0.029907	-0.006409	0.049438	-0.26032	-0.016479	-0.017242	-0.05127	0.001678	-0.15823	0.084839	-0.002136	-0.097809
28.245	0.011444	0.093231	-0.004883	0.004883	0.001831	-0.28015	0.077209	0.009308	-0.12726	0.017242	-0.089569	0.011139	0.002289	0.056152	0.002899	0.070801	0.091248	-0.042419	-0.067902	-0.01236	-0.085144	0.022888	0.057983	-0.2626	-0.018005	-0.00824	-0.15274	-0.006256	-0.010223	0.081787	-0.000458	-0.073547
28.246	0.012054	0.10407	-0.00946	-0.003967	-0.01358	-0.39948	0.10757	0.002747	-0.076904	0.011292	-0.097046	0.007782	0.034637	-0.13412	0.010223	0.008087	0.04303	-0.020599	-0.032501	-0.009003	-0.091095	0.019684	0.072632	-0.22568	0.000153	-0.002899	0.062866	-0.005188	0.033722	0.016785	0.005035	-0.059357
28.247	0.010681	0.041656	-0.025177	-0.00412	-0.028839	-0.15747	0.15533	0.002747	-0.020599	0.016174	-0.10757	0.009766	0.022888	-0.029297	-0.014343	-0.013428	-0.028687	-0.012054	0.042725	0.023956	-0.069122	0.026703	0.097046	-0.24063	-0.005951	-0.001984	0.15778	-0.003204	-0.029144	0.001221	-0.005798	-0.056915
28.248	0.018311	0.023346	-0.097351	-0.00473	-0.024109	0.082245	0.13718	0.031128	-0.007477	-0.009155	-0.055542	0.005035	0.070801	0.07843	-0.016022	-0.020599	-0.080109	-0.025787	-0.16907	0.043182	-0.06012	0.018005	0.13672	-0.27054	-0.007477	-0.017395	0.2446	-0.007935	-0.028534	0.014191	-0.003052	-0.064392
28.249	0.00885	0.037994	-0.10208	0.003357	-0.009155	0.13504	0.14145	0.04425	0.022278	0.004425	-0.01236	-0.000458	0.030823	0.099182	0.036621	-0.036011	-0.09903	0.004425	-0.12283	0.084229	-0.052795	0.014801	0.10651	-0.20233	-0.001068	-0.021515	0.26337	-0.005341	-0.023651	0.011139	-0.001831	-0.095367
28.25	-0.00946	0.048981	-0.090179	0.007477	-0.010223	0.072479	0.10422	0.000763	0.01297	0.007324	0.04837	0.000763	0.015717	0.10788	0.076752	-0.031128	-0.11108	0.043793	0.077057	0.010071	-0.045471	0.012665	0.059814	-0.15121	-0.005951	-0.014038	0.21515	-0.006256	-0.044861	-0.010681	-0.00351	-0.07782
28.251	0.007172	0.030975	-0.02655	0.011902	0.010681	0.052338	0.075684	-0.006561	0.021667	0.035095	0.16235	0.013275	0.012054	0.13702	0.046844	-0.032806	-0.053101	0.003204	-0.047455	-0.089569	-0.028992	-0.007477	0.054169	-0.091858	0.000153	-0.019379	0.12421	-0.003662	-0.087128	-0.016327	-0.003052	-0.070496
28.252	0.002594	0.021057	0.075226	0.009766	0.032043	0.03067	0.084381	0.013428	0.032501	0.057983	0.090942	0.024567	-0.010529	0.067749	0.019989	-0.030823	-0.023041	-0.097351	0.38437	-0.1062	0.006866	-0.001678	0.083771	-0.079651	-0.003815	-0.016479	0.011292	-0.007172	-0.11856	-0.040131	-0.004272	-0.053406
28.253	0.007324	0.024109	0.10681	0.006104	-0.03891	0.068054	0.055237	-0.012512	0.081329	0.03479	0.03479	0.018463	-0.011139	0.011292	0.062561	-0.022736	0.022583	-0.034332	0.62347	-0.065155	0.01358	0.004425	0.017242	-0.041504	-0.010834	-0.016479	-0.10834	-0.007477	-0.089874	0.018311	-0.001526	-0.065918
28.254	-0.003357	0.039825	0.088654	0.00412	-0.080414	0.05661	0.061188	-0.009003	0.050507	-0.005951	-0.014038	0.017853	-0.002899	0.028076	-0.01358	-0.014343	0.045776	-0.082703	0.13275	-0.050507	0.002747	0.034027	-0.001068	-0.079803	-0.019531	-0.016022	-0.12146	-0.00824	0.17334	0.096588	-0.003967	-0.057983
28.255	0.00885	0.069885	0.077972	0.00351	0.033569	0.071106	0.079193	-0.010834	0.056458	-0.0354	-0.029602	0.006866	-0.005646	0.010834	-0.059204	-0.017548	0.05661	-0.032959	-0.3743	-0.11169	0.011902	0.045471	0.017548	-0.069122	-0.000153	-0.013123	-0.077667	-0.003357	0.27603	0.069427	-0.002747	-0.061951
